<?xml version="1.0" standalone="no"?>
<!DOCTYPE svg PUBLIC "-//W3C//DTD SVG 20010904//EN"
 "http://www.w3.org/TR/2001/REC-SVG-20010904/DTD/svg10.dtd">
<svg version="1.0" xmlns="http://www.w3.org/2000/svg"
 width="1024.000000pt" height="1024.000000pt" viewBox="0 0 1024.000000 1024.000000"
 preserveAspectRatio="xMidYMid meet">

<g transform="translate(0.000000,1024.000000) scale(0.100000,-0.100000)"
fill="#000000" stroke="none">
<path d="M4978 8218 c-319 -316 -545 -677 -684 -1093 -96 -289 -133 -502 -141
-822 l-6 -212 -68 -41 c-234 -139 -390 -413 -430 -758 -14 -118 -6 -356 15
-477 23 -123 97 -342 152 -445 45 -85 103 -169 116 -170 8 0 15 38 23 135 22
251 113 424 291 555 48 36 173 105 179 98 1 -2 20 -37 43 -78 l40 -75 614 0
613 0 40 77 c22 43 45 78 50 78 23 0 114 -50 171 -94 110 -82 210 -226 248
-356 21 -69 46 -229 46 -292 0 -68 19 -62 75 25 138 215 211 467 222 768 11
307 -51 572 -182 769 -57 86 -186 209 -264 251 l-61 34 0 170 c0 442 -98 844
-301 1247 -77 152 -210 357 -319 493 -83 103 -319 345 -336 345 -7 0 -72 -60
-146 -132z m-158 -887 c262 -48 538 -31 788 47 l63 20 54 -109 c108 -215 188
-505 216 -783 16 -164 6 -504 -19 -671 -43 -275 -137 -605 -230 -808 l-41 -87
-248 2 -248 3 2 50 c2 28 12 166 23 308 24 308 25 465 5 578 -19 108 -48 202
-62 206 -17 6 -41 -56 -66 -167 -28 -127 -26 -336 5 -692 13 -147 22 -272 20
-278 -2 -6 -86 -10 -243 -10 -278 0 -242 -17 -310 145 -203 486 -284 1010
-228 1470 34 273 131 600 236 796 l25 46 76 -24 c43 -13 124 -32 182 -42z
m-641 -1473 c27 -188 93 -446 163 -637 32 -89 39 -116 28 -119 -51 -17 -195
-99 -245 -139 -107 -87 -207 -234 -235 -345 -7 -26 -16 -45 -21 -43 -13 9 -50
115 -70 205 -71 320 -26 695 112 926 61 102 199 234 245 234 7 0 16 -32 23
-82z m1971 44 c141 -97 253 -309 297 -557 19 -109 21 -357 4 -470 -15 -95 -46
-221 -68 -277 l-16 -40 -35 87 c-19 48 -49 113 -67 144 -71 121 -199 233 -340
297 -43 20 -55 30 -50 43 83 213 151 479 186 729 7 51 16 82 23 82 7 0 37 -17
66 -38z"/>
<path d="M4995 7067 c-116 -39 -213 -123 -267 -234 -32 -65 -33 -73 -33 -183
0 -104 3 -120 27 -173 37 -78 123 -167 201 -205 214 -108 484 -18 589 196 29
58 33 79 36 159 3 74 0 105 -17 154 -42 124 -116 209 -230 262 -58 28 -78 32
-166 34 -63 2 -115 -2 -140 -10z m226 -132 c121 -43 211 -189 194 -315 -8 -61
-54 -157 -91 -192 -106 -100 -289 -100 -395 -1 -116 108 -135 265 -48 397 71
106 217 154 340 111z"/>
<path d="M4733 4776 c-17 -14 -41 -49 -54 -78 -20 -45 -24 -69 -24 -158 0
-172 57 -318 180 -460 36 -41 87 -100 113 -131 33 -38 65 -94 102 -177 29 -67
58 -127 65 -132 18 -15 27 1 70 115 54 144 63 159 172 276 167 180 216 288
217 479 1 70 -4 134 -13 162 -12 44 -72 128 -90 128 -5 0 -18 -26 -29 -58 -71
-194 -297 -271 -500 -171 -72 35 -134 105 -153 172 -17 59 -22 62 -56 33z
m117 -301 c29 -19 84 -45 124 -56 39 -12 72 -23 74 -24 1 -1 7 -28 13 -61 19
-106 51 -234 58 -234 9 0 51 172 58 242 l6 55 59 17 c33 9 87 31 121 49 34 17
66 34 71 36 13 5 -3 -85 -25 -145 -27 -72 -89 -164 -175 -261 -40 -45 -83
-102 -95 -125 l-21 -42 -18 34 c-10 19 -53 76 -95 125 -89 104 -122 150 -157
220 -32 62 -69 205 -54 205 2 0 27 -16 56 -35z"/>
<path d="M3223 4401 c-52 -13 -122 -60 -152 -102 -73 -100 -60 -234 34 -338
21 -22 41 -41 45 -41 4 0 -4 44 -18 98 -21 82 -23 103 -13 138 25 93 96 150
181 148 27 -1 74 -15 114 -33 70 -32 96 -38 96 -23 0 12 -52 83 -76 104 -45
40 -150 64 -211 49z"/>
<path d="M6909 4397 c-57 -16 -103 -49 -140 -100 -25 -35 -37 -67 -25 -67 2 0
41 16 86 35 131 56 208 44 266 -42 40 -60 40 -125 0 -255 -18 -58 -7 -61 40
-10 72 76 100 177 75 269 -34 127 -175 206 -302 170z"/>
<path d="M4389 4227 c-43 -29 -62 -83 -56 -158 6 -64 35 -128 73 -158 15 -12
29 -19 31 -17 2 2 -1 32 -7 66 -13 72 -1 146 36 226 13 28 24 54 24 57 0 16
-70 5 -101 -16z"/>
<path d="M5740 4245 c0 -4 16 -39 35 -79 43 -86 54 -170 32 -233 -13 -38 -13
-43 0 -43 27 0 80 66 92 114 33 133 -13 229 -117 243 -23 3 -42 2 -42 -2z"/>
<path d="M2870 3820 c-583 -9 -750 -16 -750 -35 0 -8 20 -15 58 -19 221 -24
2517 -36 2510 -13 -3 6 -33 27 -67 45 l-63 32 -596 -2 c-329 -1 -820 -5 -1092
-8z"/>
<path d="M5659 3816 c-64 -25 -119 -56 -119 -68 0 -8 281 -9 1103 -4 1050 6
1490 15 1505 31 36 35 -156 42 -1583 50 -730 4 -876 3 -906 -9z"/>
</g>
</svg>
